<svg xmlns="http://www.w3.org/2000/svg" version="1.1" xmlns:xlink="http://www.w3.org/1999/xlink" xmlns:svgjs="http://svgjs.dev/svgjs" width="128" height="128" viewBox="0 0 128 128"><g transform="matrix(0.8046875,0,0,0.8046875,11.647896449999983,35.947706640945874)"><svg viewBox="0 0 60 32" data-background-color="#ffffff" preserveAspectRatio="xMidYMid meet" height="68" width="128" xmlns="http://www.w3.org/2000/svg" xmlns:xlink="http://www.w3.org/1999/xlink"><g id="tight-bounds" transform="matrix(1,0,0,1,0.49637100000001055,0.4052246714285701)"><svg viewBox="0 0 59.00725799999999 31.189550657142856" height="31.189550657142856" width="59.00725799999999"><g><svg viewBox="0 0 59.00725799999999 31.189550657142856" height="31.189550657142856" width="59.00725799999999"><g><svg viewBox="0 0 59.00725799999999 31.189550657142856" height="31.189550657142856" width="59.00725799999999"><g><svg viewBox="0 0 59.00725799999999 31.189550657142856" height="31.189550657142856" width="59.00725799999999"><g id="textblocktransform"><svg viewBox="0 0 59.00725799999999 31.189550657142856" height="31.189550657142856" width="59.00725799999999" id="textblock"><g><svg viewBox="0 0 59.00725799999999 31.189550657142856" height="31.189550657142856" width="59.00725799999999"><g><svg viewBox="0 0 59.00725799999999 31.189550657142856" height="31.189550657142856" width="59.00725799999999"><g><svg xmlns="http://www.w3.org/2000/svg" xmlns:xlink="http://www.w3.org/1999/xlink" version="1.1" x="0" y="0" viewBox="15 31.5 70 37" enable-background="new 0 0 100 100" xml:space="preserve" height="31.189550657142856" width="59.00725799999999" class="icon-icon-0" data-fill-palette-color="accent" id="icon-0"></svg></g></svg></g></svg></g></svg></g></svg></g></svg></g></svg></g><defs></defs><mask id="641b613c-2d83-470f-8a81-31bab4617382"><g id="SvgjsG1258"><svg viewBox="0 0 59.00725799999999 31.189550657142856" height="31.189550657142856" width="59.00725799999999"><g><svg viewBox="0 0 59.00725799999999 31.189550657142856" height="31.189550657142856" width="59.00725799999999"><g><svg viewBox="0 0 59.00725799999999 31.189550657142856" height="31.189550657142856" width="59.00725799999999"><g><svg viewBox="0 0 59.00725799999999 31.189550657142856" height="31.189550657142856" width="59.00725799999999"><g id="SvgjsG1257"><svg viewBox="0 0 59.00725799999999 31.189550657142856" height="31.189550657142856" width="59.00725799999999" id="SvgjsSvg1256"><g><svg viewBox="0 0 59.00725799999999 31.189550657142856" height="31.189550657142856" width="59.00725799999999"><g><svg viewBox="0 0 59.00725799999999 31.189550657142856" height="31.189550657142856" width="59.00725799999999"><g><svg xmlns="http://www.w3.org/2000/svg" xmlns:xlink="http://www.w3.org/1999/xlink" version="1.1" x="0" y="0" viewBox="15 31.5 70 37" enable-background="new 0 0 100 100" xml:space="preserve" height="31.189550657142856" width="59.00725799999999" class="icon-icon-0" data-fill-palette-color="accent" id="SvgjsSvg1255"><g fill="white"><path d="M44.866 44.847A7.24 7.24 0 0 1 55.134 44.847 7.31 7.31 0 0 1 55.134 55.154 7.24 7.24 0 0 1 44.866 55.154 7.307 7.307 0 0 1 44.866 44.847M50 31.5C30.452 31.5 15 50 15 50S30.452 68.5 50 68.5C54.158 68.5 58.129 67.661 61.807 66.344L56.973 61.491C51.813 64.651 44.986 63.994 40.523 59.514 35.288 54.26 35.288 45.741 40.523 40.486S54.245 35.232 59.479 40.486C63.942 44.966 64.597 51.818 61.449 56.998L68 63.575C78.237 58.095 85 50 85 50S69.548 31.5 50 31.5" fill="white"></path></g></svg></g></svg></g></svg></g></svg></g></svg></g></svg></g></svg></g><defs><mask></mask></defs></svg><rect width="59.00725799999999" height="31.189550657142856" fill="black" stroke="none" visibility="hidden"></rect></g></mask><linearGradient x1="0.054" x2="0.941" y1="0.5" y2="0.5" id="501dda73-dfbe-4dab-94c8-5cd690a1df0e"><stop stop-color="#0f3054" offset="0"></stop><stop stop-color="#3b8dcb" offset="0.498"></stop><stop stop-color="#0f3054" offset="1"></stop></linearGradient><rect width="59.00725799999999" height="31.189550657142856" fill="url(#501dda73-dfbe-4dab-94c8-5cd690a1df0e)" mask="url(#641b613c-2d83-470f-8a81-31bab4617382)" data-fill-palette-color="accent"></rect></svg><rect width="59.00725799999999" height="31.189550657142856" fill="none" stroke="none" visibility="hidden"></rect></g></svg></g></svg>