<svg xmlns="http://www.w3.org/2000/svg" version="1.1" xmlns:xlink="http://www.w3.org/1999/xlink" xmlns:svgjs="http://svgjs.dev/svgjs" width="800" height="984" viewBox="0 0 800 984"><g transform="matrix(1,0,0,1,-3.2177718832891173,-2.6598750000000564)"><svg viewBox="0 0 78 96" data-background-color="#ffffff" preserveAspectRatio="xMidYMid meet" height="984" width="800" xmlns="http://www.w3.org/2000/svg" xmlns:xlink="http://www.w3.org/1999/xlink"><g id="tight-bounds" transform="matrix(1,0,0,1,0.31373275862068795,0.25950000000000273)"><svg viewBox="0 0 77.37253448275861 95.481" height="95.481" width="77.37253448275861"><g><svg viewBox="0 0 77.37253448275861 95.481" height="95.481" width="77.37253448275861"><g><svg viewBox="0 0 77.37253448275861 95.481" height="95.481" width="77.37253448275861"><g><svg viewBox="0 0 77.37253448275861 95.481" height="95.481" width="77.37253448275861"><g id="textblocktransform"><svg viewBox="0 0 77.37253448275861 95.481" height="95.481" width="77.37253448275861" id="textblock"><g><svg viewBox="0 0 77.37253448275861 95.481" height="95.481" width="77.37253448275861"><g transform="matrix(1,0,0,1,0,0)"><svg width="77.37253448275861" viewBox="1.32 -25.34 20.65 25.49" height="95.481" data-palette-color="url(#b138f333-2518-4901-b697-8828c9d1b453)"></svg></g></svg></g></svg></g></svg></g></svg></g></svg></g><defs></defs><mask id="06893eba-88ae-4154-b510-86ec5185776b"><g id="SvgjsG6557"><svg viewBox="0 0 77.37253448275861 95.481" height="95.481" width="77.37253448275861"><g><svg viewBox="0 0 77.37253448275861 95.481" height="95.481" width="77.37253448275861"><g><svg viewBox="0 0 77.37253448275861 95.481" height="95.481" width="77.37253448275861"><g><svg viewBox="0 0 77.37253448275861 95.481" height="95.481" width="77.37253448275861"><g id="SvgjsG6556"><svg viewBox="0 0 77.37253448275861 95.481" height="95.481" width="77.37253448275861" id="SvgjsSvg6555"><g><svg viewBox="0 0 77.37253448275861 95.481" height="95.481" width="77.37253448275861"><g transform="matrix(1,0,0,1,0,0)"><svg width="77.37253448275861" viewBox="1.32 -25.34 20.65 25.49" height="95.481" data-palette-color="url(#b138f333-2518-4901-b697-8828c9d1b453)"><path d="M19.53-1.42L19.53-1.42Q19.43-2.05 18.97-4.13 18.51-6.2 17.77-8.84L17.77-8.84Q17.09-8.74 16.41-8.74 15.72-8.74 14.99-8.74L14.99-8.74Q14.01-8.74 12.94-8.76 11.87-8.79 10.99-8.96 10.11-9.13 9.52-9.5 8.94-9.86 8.94-10.55L8.94-10.55Q8.94-11.08 9.4-11.43 9.86-11.77 10.74-11.77L10.74-11.77Q12.7-11.47 14.65-11.47L14.65-11.47Q15.23-11.47 15.82-11.47 16.41-11.47 16.99-11.57L16.99-11.57Q16.41-13.57 15.77-15.5 15.14-17.43 14.53-18.95 13.92-20.46 13.38-21.39 12.84-22.31 12.4-22.31L12.4-22.31Q11.57-22.31 10.64-20.8 9.72-19.29 8.79-16.99 7.86-14.7 7.03-11.99 6.2-9.28 5.54-6.88 4.88-4.49 4.49-2.81 4.1-1.12 4.1-0.83L4.1-0.83Q4-0.34 3.64-0.1 3.27 0.15 2.88 0.15L2.88 0.15Q2.29 0.15 1.81-0.24 1.32-0.63 1.32-1.32L1.32-1.32Q2.69-8.06 4.44-13.33L4.44-13.33Q5.18-15.58 6.05-17.75 6.93-19.92 7.96-21.61 8.98-23.29 10.13-24.32 11.28-25.34 12.5-25.34L12.5-25.34Q13.77-25.34 14.92-23.78 16.06-22.22 17.09-19.8 18.12-17.38 18.95-14.53 19.78-11.67 20.41-9.11 21.04-6.54 21.44-4.61 21.83-2.69 21.97-2.2L21.97-2.2 21.97-1.9Q21.97-1.12 21.51-0.66 21.04-0.2 20.51-0.2L20.51-0.2Q20.12-0.2 19.85-0.46 19.58-0.73 19.53-1.42Z" opacity="1" transform="matrix(1,0,0,1,0,0)" fill="white" class="wordmark-text-0" id="SvgjsPath6554"></path></svg></g></svg></g></svg></g></svg></g></svg></g></svg></g><defs><mask></mask></defs></svg><rect width="77.37253448275861" height="95.481" fill="black" stroke="none" visibility="hidden"></rect></g></mask><linearGradient x1="0.054" x2="0.941" y1="0.5" y2="0.5" id="b138f333-2518-4901-b697-8828c9d1b453"><stop stop-color="#0f3054" offset="0"></stop><stop stop-color="#3b8dcb" offset="0.498"></stop><stop stop-color="#0f3054" offset="1"></stop></linearGradient><rect width="77.37253448275861" height="95.481" fill="#000000" mask="url(#06893eba-88ae-4154-b510-86ec5185776b)" data-fill-palette-color="primary"></rect></svg><rect width="77.37253448275861" height="95.481" fill="none" stroke="none" visibility="hidden"></rect></g></svg></g></svg>