<svg xmlns="http://www.w3.org/2000/svg" version="1.1" xmlns:xlink="http://www.w3.org/1999/xlink" xmlns:svgjs="http://svgjs.dev/svgjs" width="2000" height="202" viewBox="0 0 2000 202"><g transform="matrix(1,0,0,1,-1.2121212121212466,-1.8283251519927433)"><svg viewBox="0 0 396 40" data-background-color="#ffffff" preserveAspectRatio="xMidYMid meet" height="202" width="2000" xmlns="http://www.w3.org/2000/svg" xmlns:xlink="http://www.w3.org/1999/xlink"><g id="tight-bounds" transform="matrix(1,0,0,1,0.2400000000000091,0.36204458455301847)"><svg viewBox="0 0 395.52 39.27591083089394" height="39.27591083089394" width="395.52"><g><svg viewBox="0 0 395.52 39.27591083089394" height="39.27591083089394" width="395.52"><g><svg viewBox="0 0 395.52 39.27591083089394" height="39.27591083089394" width="395.52"><g><svg viewBox="0 0 395.52 39.27591083089394" height="39.27591083089394" width="395.52"><g id="textblocktransform"><svg viewBox="0 0 395.52 39.27591083089394" height="39.27591083089394" width="395.52" id="textblock"><g><svg viewBox="0 0 395.52 39.27591083089394" height="39.27591083089394" width="395.52"><g transform="matrix(1,0,0,1,0,0)"><svg width="395.52" viewBox="5.03 -43.07 428.6500000000001 42.39" height="39.27591083089394" data-palette-color="#0a309f"><g class="wordmark-text-0" data-fill-palette-color="primary" id="text-0"><path d="M7.96-0.68L7.96-0.68 17.04-0.68Q18.41-0.68 19.19-1.42 19.97-2.15 19.97-3.13 19.97-4.1 19.19-4.83 18.41-5.57 17.04-5.57L17.04-5.57 7.96-5.57Q6.59-5.57 5.81-4.83 5.03-4.1 5.03-3.13 5.03-2.15 5.81-1.42 6.59-0.68 7.96-0.68ZM32.96-0.68L32.96-0.68 42.04-0.68Q43.41-0.68 44.19-1.42 44.97-2.15 44.97-3.13 44.97-4.1 44.19-4.83 43.41-5.57 42.04-5.57L42.04-5.57 32.96-5.57Q31.59-5.57 30.81-4.83 30.03-4.1 30.03-3.13 30.03-2.15 30.81-1.42 31.59-0.68 32.96-0.68ZM7.96-6.93L7.96-6.93 17.04-6.93Q18.41-6.93 19.19-7.67 19.97-8.4 19.97-9.38 19.97-10.35 19.19-11.08 18.41-11.82 17.04-11.82L17.04-11.82 7.96-11.82Q6.59-11.82 5.81-11.08 5.03-10.35 5.03-9.38 5.03-8.4 5.81-7.67 6.59-6.93 7.96-6.93ZM32.96-6.93L32.96-6.93 42.04-6.93Q43.41-6.93 44.19-7.67 44.97-8.4 44.97-9.38 44.97-10.35 44.19-11.08 43.41-11.82 42.04-11.82L42.04-11.82 32.96-11.82Q31.59-11.82 30.81-11.08 30.03-10.35 30.03-9.38 30.03-8.4 30.81-7.67 31.59-6.93 32.96-6.93ZM7.96-13.18L7.96-13.18 17.04-13.18Q18.41-13.18 19.19-13.92 19.97-14.65 19.97-15.63 19.97-16.6 19.19-17.33 18.41-18.07 17.04-18.07L17.04-18.07 7.96-18.07Q6.59-18.07 5.81-17.33 5.03-16.6 5.03-15.63 5.03-14.65 5.81-13.92 6.59-13.18 7.96-13.18ZM32.96-13.18L32.96-13.18 42.04-13.18Q43.41-13.18 44.19-13.92 44.97-14.65 44.97-15.63 44.97-16.6 44.19-17.33 43.41-18.07 42.04-18.07L42.04-18.07 32.96-18.07Q31.59-18.07 30.81-17.33 30.03-16.6 30.03-15.63 30.03-14.65 30.81-13.92 31.59-13.18 32.96-13.18ZM7.96-19.43L7.96-19.43 42.04-19.43Q43.41-19.43 44.19-20.17 44.97-20.9 44.97-21.88 44.97-22.85 44.19-23.58 43.41-24.32 42.04-24.32L42.04-24.32 7.96-24.32Q6.59-24.32 5.81-23.58 5.03-22.85 5.03-21.88 5.03-20.9 5.81-20.17 6.59-19.43 7.96-19.43ZM7.96-25.68L7.96-25.68 17.04-25.68Q18.41-25.68 19.19-26.42 19.97-27.15 19.97-28.13 19.97-29.1 19.19-29.83 18.41-30.57 17.04-30.57L17.04-30.57 7.96-30.57Q6.59-30.57 5.81-29.83 5.03-29.1 5.03-28.13 5.03-27.15 5.81-26.42 6.59-25.68 7.96-25.68ZM32.96-25.68L32.96-25.68 42.04-25.68Q43.41-25.68 44.19-26.42 44.97-27.15 44.97-28.13 44.97-29.1 44.19-29.83 43.41-30.57 42.04-30.57L42.04-30.57 32.96-30.57Q31.59-30.57 30.81-29.83 30.03-29.1 30.03-28.13 30.03-27.15 30.81-26.42 31.59-25.68 32.96-25.68ZM14.21-31.93L14.21-31.93 35.79-31.93Q37.16-31.93 37.94-32.67 38.72-33.4 38.72-34.38 38.72-35.35 37.94-36.08 37.16-36.82 35.79-36.82L35.79-36.82 14.21-36.82Q12.84-36.82 12.06-36.08 11.28-35.35 11.28-34.38 11.28-33.4 12.06-32.67 12.84-31.93 14.21-31.93ZM20.46-38.18L20.46-38.18 29.54-38.18Q30.91-38.18 31.69-38.92 32.47-39.65 32.47-40.63 32.47-41.6 31.69-42.33 30.91-43.07 29.54-43.07L29.54-43.07 20.46-43.07Q19.09-43.07 18.31-42.33 17.53-41.6 17.53-40.63 17.53-39.65 18.31-38.92 19.09-38.18 20.46-38.18ZM76.71-0.68L76.71-0.68 92.04-0.68Q93.41-0.68 94.19-1.42 94.97-2.15 94.97-3.13 94.97-4.1 94.19-4.83 93.41-5.57 92.04-5.57L92.04-5.57 76.71-5.57Q75.34-5.57 74.56-4.83 73.78-4.1 73.78-3.13 73.78-2.15 74.56-1.42 75.34-0.68 76.71-0.68ZM70.46-6.93L70.46-6.93 79.54-6.93Q80.91-6.93 81.69-7.67 82.47-8.4 82.47-9.38 82.47-10.35 81.69-11.08 80.91-11.82 79.54-11.82L79.54-11.82 70.46-11.82Q69.09-11.82 68.31-11.08 67.53-10.35 67.53-9.38 67.53-8.4 68.31-7.67 69.09-6.93 70.46-6.93ZM70.46-13.18L70.46-13.18 79.54-13.18Q80.91-13.18 81.69-13.92 82.47-14.65 82.47-15.63 82.47-16.6 81.69-17.33 80.91-18.07 79.54-18.07L79.54-18.07 70.46-18.07Q69.09-18.07 68.31-17.33 67.53-16.6 67.53-15.63 67.53-14.65 68.31-13.92 69.09-13.18 70.46-13.18ZM70.46-19.43L70.46-19.43 79.54-19.43Q80.91-19.43 81.69-20.17 82.47-20.9 82.47-21.88 82.47-22.85 81.69-23.58 80.91-24.32 79.54-24.32L79.54-24.32 70.46-24.32Q69.09-24.32 68.31-23.58 67.53-22.85 67.53-21.88 67.53-20.9 68.31-20.17 69.09-19.43 70.46-19.43ZM57.96-25.68L57.96-25.68 92.04-25.68Q93.41-25.68 94.19-26.42 94.97-27.15 94.97-28.13 94.97-29.1 94.19-29.83 93.41-30.57 92.04-30.57L92.04-30.57 57.96-30.57Q56.59-30.57 55.81-29.83 55.03-29.1 55.03-28.13 55.03-27.15 55.81-26.42 56.59-25.68 57.96-25.68ZM70.46-31.93L70.46-31.93 79.54-31.93Q80.91-31.93 81.69-32.67 82.47-33.4 82.47-34.38 82.47-35.35 81.69-36.08 80.91-36.82 79.54-36.82L79.54-36.82 70.46-36.82Q69.09-36.82 68.31-36.08 67.53-35.35 67.53-34.38 67.53-33.4 68.31-32.67 69.09-31.93 70.46-31.93ZM107.95-0.68L107.95-0.68 117.04-0.68Q118.4-0.68 119.18-1.42 119.97-2.15 119.97-3.13 119.97-4.1 119.18-4.83 118.4-5.57 117.04-5.57L117.04-5.57 107.95-5.57Q106.59-5.57 105.81-4.83 105.02-4.1 105.02-3.13 105.02-2.15 105.81-1.42 106.59-0.68 107.95-0.68ZM132.95-0.68L132.95-0.68 142.04-0.68Q143.4-0.68 144.18-1.42 144.97-2.15 144.97-3.13 144.97-4.1 144.18-4.83 143.4-5.57 142.04-5.57L142.04-5.57 132.95-5.57Q131.59-5.57 130.81-4.83 130.02-4.1 130.02-3.13 130.02-2.15 130.81-1.42 131.59-0.68 132.95-0.68ZM107.95-6.93L107.95-6.93 117.04-6.93Q118.4-6.93 119.18-7.67 119.97-8.4 119.97-9.38 119.97-10.35 119.18-11.08 118.4-11.82 117.04-11.82L117.04-11.82 107.95-11.82Q106.59-11.82 105.81-11.08 105.02-10.35 105.02-9.38 105.02-8.4 105.81-7.67 106.59-6.93 107.95-6.93ZM132.95-6.93L132.95-6.93 142.04-6.93Q143.4-6.93 144.18-7.67 144.97-8.4 144.97-9.38 144.97-10.35 144.18-11.08 143.4-11.82 142.04-11.82L142.04-11.82 132.95-11.82Q131.59-11.82 130.81-11.08 130.02-10.35 130.02-9.38 130.02-8.4 130.81-7.67 131.59-6.93 132.95-6.93ZM107.95-13.18L107.95-13.18 117.04-13.18Q118.4-13.18 119.18-13.92 119.97-14.65 119.97-15.63 119.97-16.6 119.18-17.33 118.4-18.07 117.04-18.07L117.04-18.07 107.95-18.07Q106.59-18.07 105.81-17.33 105.02-16.6 105.02-15.63 105.02-14.65 105.81-13.92 106.59-13.18 107.95-13.18ZM132.95-13.18L132.95-13.18 142.04-13.18Q143.4-13.18 144.18-13.92 144.97-14.65 144.97-15.63 144.97-16.6 144.18-17.33 143.4-18.07 142.04-18.07L142.04-18.07 132.95-18.07Q131.59-18.07 130.81-17.33 130.02-16.6 130.02-15.63 130.02-14.65 130.81-13.92 131.59-13.18 132.95-13.18ZM107.95-19.43L107.95-19.43 135.79-19.43Q137.15-19.43 137.93-20.17 138.72-20.9 138.72-21.88 138.72-22.85 137.93-23.58 137.15-24.32 135.79-24.32L135.79-24.32 107.95-24.32Q106.59-24.32 105.81-23.58 105.02-22.85 105.02-21.88 105.02-20.9 105.81-20.17 106.59-19.43 107.95-19.43ZM107.95-25.68L107.95-25.68 117.04-25.68Q118.4-25.68 119.18-26.42 119.97-27.15 119.97-28.13 119.97-29.1 119.18-29.83 118.4-30.57 117.04-30.57L117.04-30.57 107.95-30.57Q106.59-30.57 105.81-29.83 105.02-29.1 105.02-28.13 105.02-27.15 105.81-26.42 106.59-25.68 107.95-25.68ZM107.95-31.93L107.95-31.93 117.04-31.93Q118.4-31.93 119.18-32.67 119.97-33.4 119.97-34.38 119.97-35.35 119.18-36.08 118.4-36.82 117.04-36.82L117.04-36.82 107.95-36.82Q106.59-36.82 105.81-36.08 105.02-35.35 105.02-34.38 105.02-33.4 105.81-32.67 106.59-31.93 107.95-31.93ZM164.2-0.68L164.2-0.68 185.78-0.68Q187.15-0.68 187.93-1.42 188.71-2.15 188.71-3.13 188.71-4.1 187.93-4.83 187.15-5.57 185.78-5.57L185.78-5.57 164.2-5.57Q162.83-5.57 162.05-4.83 161.27-4.1 161.27-3.13 161.27-2.15 162.05-1.42 162.83-0.68 164.2-0.68ZM157.95-6.93L157.95-6.93 167.03-6.93Q168.4-6.93 169.18-7.67 169.96-8.4 169.96-9.38 169.96-10.35 169.18-11.08 168.4-11.82 167.03-11.82L167.03-11.82 157.95-11.82Q156.58-11.82 155.8-11.08 155.02-10.35 155.02-9.38 155.02-8.4 155.8-7.67 156.58-6.93 157.95-6.93ZM157.95-13.18L157.95-13.18 192.03-13.18Q193.4-13.18 194.18-13.92 194.96-14.65 194.96-15.63 194.96-16.6 194.18-17.33 193.4-18.07 192.03-18.07L192.03-18.07 157.95-18.07Q156.58-18.07 155.8-17.33 155.02-16.6 155.02-15.63 155.02-14.65 155.8-13.92 156.58-13.18 157.95-13.18ZM157.95-19.43L157.95-19.43 167.03-19.43Q168.4-19.43 169.18-20.17 169.96-20.9 169.96-21.88 169.96-22.85 169.18-23.58 168.4-24.32 167.03-24.32L167.03-24.32 157.95-24.32Q156.58-24.32 155.8-23.58 155.02-22.85 155.02-21.88 155.02-20.9 155.8-20.17 156.58-19.43 157.95-19.43ZM182.95-19.43L182.95-19.43 192.03-19.43Q193.4-19.43 194.18-20.17 194.96-20.9 194.96-21.88 194.96-22.85 194.18-23.58 193.4-24.32 192.03-24.32L192.03-24.32 182.95-24.32Q181.58-24.32 180.8-23.58 180.02-22.85 180.02-21.88 180.02-20.9 180.8-20.17 181.58-19.43 182.95-19.43ZM164.2-25.68L164.2-25.68 185.78-25.68Q187.15-25.68 187.93-26.42 188.71-27.15 188.71-28.13 188.71-29.1 187.93-29.83 187.15-30.57 185.78-30.57L185.78-30.57 164.2-30.57Q162.83-30.57 162.05-29.83 161.27-29.1 161.27-28.13 161.27-27.15 162.05-26.42 162.83-25.68 164.2-25.68ZM207.95-0.68L207.95-0.68 217.03-0.68Q218.4-0.68 219.18-1.42 219.96-2.15 219.96-3.13 219.96-4.1 219.18-4.83 218.4-5.57 217.03-5.57L217.03-5.57 207.95-5.57Q206.58-5.57 205.8-4.83 205.02-4.1 205.02-3.13 205.02-2.15 205.8-1.42 206.58-0.68 207.95-0.68ZM232.95-0.68L232.95-0.68 242.03-0.68Q243.4-0.68 244.18-1.42 244.96-2.15 244.96-3.13 244.96-4.1 244.18-4.83 243.4-5.57 242.03-5.57L242.03-5.57 232.95-5.57Q231.58-5.57 230.8-4.83 230.02-4.1 230.02-3.13 230.02-2.15 230.8-1.42 231.58-0.68 232.95-0.68ZM207.95-6.93L207.95-6.93 217.03-6.93Q218.4-6.93 219.18-7.67 219.96-8.4 219.96-9.38 219.96-10.35 219.18-11.08 218.4-11.82 217.03-11.82L217.03-11.82 207.95-11.82Q206.58-11.82 205.8-11.08 205.02-10.35 205.02-9.38 205.02-8.4 205.8-7.67 206.58-6.93 207.95-6.93ZM232.95-6.93L232.95-6.93 242.03-6.93Q243.4-6.93 244.18-7.67 244.96-8.4 244.96-9.38 244.96-10.35 244.18-11.08 243.4-11.82 242.03-11.82L242.03-11.82 232.95-11.82Q231.58-11.82 230.8-11.08 230.02-10.35 230.02-9.38 230.02-8.4 230.8-7.67 231.58-6.93 232.95-6.93ZM207.95-13.18L207.95-13.18 217.03-13.18Q218.4-13.18 219.18-13.92 219.96-14.65 219.96-15.63 219.96-16.6 219.18-17.33 218.4-18.07 217.03-18.07L217.03-18.07 207.95-18.07Q206.58-18.07 205.8-17.33 205.02-16.6 205.02-15.63 205.02-14.65 205.8-13.92 206.58-13.18 207.95-13.18ZM232.95-13.18L232.95-13.18 242.03-13.18Q243.4-13.18 244.18-13.92 244.96-14.65 244.96-15.63 244.96-16.6 244.18-17.33 243.4-18.07 242.03-18.07L242.03-18.07 232.95-18.07Q231.58-18.07 230.8-17.33 230.02-16.6 230.02-15.63 230.02-14.65 230.8-13.92 231.58-13.18 232.95-13.18ZM207.95-19.43L207.95-19.43 217.03-19.43Q218.4-19.43 219.18-20.17 219.96-20.9 219.96-21.88 219.96-22.85 219.18-23.58 218.4-24.32 217.03-24.32L217.03-24.32 207.95-24.32Q206.58-24.32 205.8-23.58 205.02-22.85 205.02-21.88 205.02-20.9 205.8-20.17 206.58-19.43 207.95-19.43ZM232.95-19.43L232.95-19.43 242.03-19.43Q243.4-19.43 244.18-20.17 244.96-20.9 244.96-21.88 244.96-22.85 244.18-23.58 243.4-24.32 242.03-24.32L242.03-24.32 232.95-24.32Q231.58-24.32 230.8-23.58 230.02-22.85 230.02-21.88 230.02-20.9 230.8-20.17 231.58-19.43 232.95-19.43ZM207.95-25.68L207.95-25.68 235.78-25.68Q237.15-25.68 237.93-26.42 238.71-27.15 238.71-28.13 238.71-29.1 237.93-29.83 237.15-30.57 235.78-30.57L235.78-30.57 207.95-30.57Q206.58-30.57 205.8-29.83 205.02-29.1 205.02-28.13 205.02-27.15 205.8-26.42 206.58-25.68 207.95-25.68ZM264.2-0.68L264.2-0.68 292.03-0.68Q293.4-0.68 294.18-1.42 294.96-2.15 294.96-3.13 294.96-4.1 294.18-4.83 293.4-5.57 292.03-5.57L292.03-5.57 264.2-5.57Q262.83-5.57 262.05-4.83 261.27-4.1 261.27-3.13 261.27-2.15 262.05-1.42 262.83-0.68 264.2-0.68ZM257.95-6.93L257.95-6.93 267.03-6.93Q268.4-6.93 269.18-7.67 269.96-8.4 269.96-9.38 269.96-10.35 269.18-11.08 268.4-11.82 267.03-11.82L267.03-11.82 257.95-11.82Q256.58-11.82 255.8-11.08 255.02-10.35 255.02-9.38 255.02-8.4 255.8-7.67 256.58-6.93 257.95-6.93ZM282.95-6.93L282.95-6.93 292.03-6.93Q293.4-6.93 294.18-7.67 294.96-8.4 294.96-9.38 294.96-10.35 294.18-11.08 293.4-11.82 292.03-11.82L292.03-11.82 282.95-11.82Q281.58-11.82 280.8-11.08 280.02-10.35 280.02-9.38 280.02-8.4 280.8-7.67 281.58-6.93 282.95-6.93ZM264.2-13.18L264.2-13.18 292.03-13.18Q293.4-13.18 294.18-13.92 294.96-14.65 294.96-15.63 294.96-16.6 294.18-17.33 293.4-18.07 292.03-18.07L292.03-18.07 264.2-18.07Q262.83-18.07 262.05-17.33 261.27-16.6 261.27-15.63 261.27-14.65 262.05-13.92 262.83-13.18 264.2-13.18ZM282.95-19.43L282.95-19.43 292.03-19.43Q293.4-19.43 294.18-20.17 294.96-20.9 294.96-21.88 294.96-22.85 294.18-23.58 293.4-24.32 292.03-24.32L292.03-24.32 282.95-24.32Q281.58-24.32 280.8-23.58 280.02-22.85 280.02-21.88 280.02-20.9 280.8-20.17 281.58-19.43 282.95-19.43ZM264.2-25.68L264.2-25.68 285.78-25.68Q287.15-25.68 287.93-26.42 288.71-27.15 288.71-28.13 288.71-29.1 287.93-29.83 287.15-30.57 285.78-30.57L285.78-30.57 264.2-30.57Q262.83-30.57 262.05-29.83 261.27-29.1 261.27-28.13 261.27-27.15 262.05-26.42 262.83-25.68 264.2-25.68Z" fill="#000000" data-fill-palette-color="primary"></path><path d="M352.92-0.68L352.92-0.68 362-0.68Q363.37-0.68 364.15-1.42 364.93-2.15 364.93-3.13 364.93-4.1 364.15-4.83 363.37-5.57 362-5.57L362-5.57 352.92-5.57Q351.55-5.57 350.77-4.83 349.99-4.1 349.99-3.13 349.99-2.15 350.77-1.42 351.55-0.68 352.92-0.68ZM377.92-0.68L377.92-0.68 387-0.68Q388.37-0.68 389.15-1.42 389.93-2.15 389.93-3.13 389.93-4.1 389.15-4.83 388.37-5.57 387-5.57L387-5.57 377.92-5.57Q376.55-5.57 375.77-4.83 374.99-4.1 374.99-3.13 374.99-2.15 375.77-1.42 376.55-0.68 377.92-0.68ZM352.92-6.93L352.92-6.93 362-6.93Q363.37-6.93 364.15-7.67 364.93-8.4 364.93-9.38 364.93-10.35 364.15-11.08 363.37-11.82 362-11.82L362-11.82 352.92-11.82Q351.55-11.82 350.77-11.08 349.99-10.35 349.99-9.38 349.99-8.4 350.77-7.67 351.55-6.93 352.92-6.93ZM377.92-6.93L377.92-6.93 387-6.93Q388.37-6.93 389.15-7.67 389.93-8.4 389.93-9.38 389.93-10.35 389.15-11.08 388.37-11.82 387-11.82L387-11.82 377.92-11.82Q376.55-11.82 375.77-11.08 374.99-10.35 374.99-9.38 374.99-8.4 375.77-7.67 376.55-6.93 377.92-6.93ZM352.92-13.18L352.92-13.18 362-13.18Q363.37-13.18 364.15-13.92 364.93-14.65 364.93-15.63 364.93-16.6 364.15-17.33 363.37-18.07 362-18.07L362-18.07 352.92-18.07Q351.55-18.07 350.77-17.33 349.99-16.6 349.99-15.63 349.99-14.65 350.77-13.92 351.55-13.18 352.92-13.18ZM377.92-13.18L377.92-13.18 387-13.18Q388.37-13.18 389.15-13.92 389.93-14.65 389.93-15.63 389.93-16.6 389.15-17.33 388.37-18.07 387-18.07L387-18.07 377.92-18.07Q376.55-18.07 375.77-17.33 374.99-16.6 374.99-15.63 374.99-14.65 375.77-13.92 376.55-13.18 377.92-13.18ZM352.92-19.43L352.92-19.43 387-19.43Q388.37-19.43 389.15-20.17 389.93-20.9 389.93-21.88 389.93-22.85 389.15-23.58 388.37-24.32 387-24.32L387-24.32 352.92-24.32Q351.55-24.32 350.77-23.58 349.99-22.85 349.99-21.88 349.99-20.9 350.77-20.17 351.55-19.43 352.92-19.43ZM352.92-25.68L352.92-25.68 362-25.68Q363.37-25.68 364.15-26.42 364.93-27.15 364.93-28.13 364.93-29.1 364.15-29.83 363.37-30.57 362-30.57L362-30.57 352.92-30.57Q351.55-30.57 350.77-29.83 349.99-29.1 349.99-28.13 349.99-27.15 350.77-26.42 351.55-25.68 352.92-25.68ZM377.92-25.68L377.92-25.68 387-25.68Q388.37-25.68 389.15-26.42 389.93-27.15 389.93-28.13 389.93-29.1 389.15-29.83 388.37-30.57 387-30.57L387-30.57 377.92-30.57Q376.55-30.57 375.77-29.83 374.99-29.1 374.99-28.13 374.99-27.15 375.77-26.42 376.55-25.68 377.92-25.68ZM359.17-31.93L359.17-31.93 380.75-31.93Q382.12-31.93 382.9-32.67 383.68-33.4 383.68-34.38 383.68-35.35 382.9-36.08 382.12-36.82 380.75-36.82L380.75-36.82 359.17-36.82Q357.8-36.82 357.02-36.08 356.24-35.35 356.24-34.38 356.24-33.4 357.02-32.67 357.8-31.93 359.17-31.93ZM365.42-38.18L365.42-38.18 374.5-38.18Q375.87-38.18 376.65-38.92 377.43-39.65 377.43-40.63 377.43-41.6 376.65-42.33 375.87-43.07 374.5-43.07L374.5-43.07 365.42-43.07Q364.05-43.07 363.27-42.33 362.49-41.6 362.49-40.63 362.49-39.65 363.27-38.92 364.05-38.18 365.42-38.18ZM409.16-0.68L409.16-0.68 430.75-0.68Q432.11-0.68 432.89-1.42 433.68-2.15 433.68-3.13 433.68-4.1 432.89-4.83 432.11-5.57 430.75-5.57L430.75-5.57 409.16-5.57Q407.8-5.57 407.02-4.83 406.23-4.1 406.23-3.13 406.23-2.15 407.02-1.42 407.8-0.68 409.16-0.68ZM415.41-6.93L415.41-6.93 424.5-6.93Q425.86-6.93 426.64-7.67 427.43-8.4 427.43-9.38 427.43-10.35 426.64-11.08 425.86-11.82 424.5-11.82L424.5-11.82 415.41-11.82Q414.05-11.82 413.27-11.08 412.48-10.35 412.48-9.38 412.48-8.4 413.27-7.67 414.05-6.93 415.41-6.93ZM415.41-13.18L415.41-13.18 424.5-13.18Q425.86-13.18 426.64-13.92 427.43-14.65 427.43-15.63 427.43-16.6 426.64-17.33 425.86-18.07 424.5-18.07L424.5-18.07 415.41-18.07Q414.05-18.07 413.27-17.33 412.48-16.6 412.48-15.63 412.48-14.65 413.27-13.92 414.05-13.18 415.41-13.18ZM415.41-19.43L415.41-19.43 424.5-19.43Q425.86-19.43 426.64-20.17 427.43-20.9 427.43-21.88 427.43-22.85 426.64-23.58 425.86-24.32 424.5-24.32L424.5-24.32 415.41-24.32Q414.05-24.32 413.27-23.58 412.48-22.85 412.48-21.88 412.48-20.9 413.27-20.17 414.05-19.43 415.41-19.43ZM415.41-25.68L415.41-25.68 424.5-25.68Q425.86-25.68 426.64-26.42 427.43-27.15 427.43-28.13 427.43-29.1 426.64-29.83 425.86-30.57 424.5-30.57L424.5-30.57 415.41-30.57Q414.05-30.57 413.27-29.83 412.48-29.1 412.48-28.13 412.48-27.15 413.27-26.42 414.05-25.68 415.41-25.68ZM415.41-31.93L415.41-31.93 424.5-31.93Q425.86-31.93 426.64-32.67 427.43-33.4 427.43-34.38 427.43-35.35 426.64-36.08 425.86-36.82 424.5-36.82L424.5-36.82 415.41-36.82Q414.05-36.82 413.27-36.08 412.48-35.35 412.48-34.38 412.48-33.4 413.27-32.67 414.05-31.93 415.41-31.93ZM409.16-38.18L409.16-38.18 430.75-38.18Q432.11-38.18 432.89-38.92 433.68-39.65 433.68-40.63 433.68-41.6 432.89-42.33 432.11-43.07 430.75-43.07L430.75-43.07 409.16-43.07Q407.8-43.07 407.02-42.33 406.23-41.6 406.23-40.63 406.23-39.65 407.02-38.92 407.8-38.18 409.16-38.18Z" fill="#000000" data-fill-palette-color="secondary"></path></g></svg></g></svg></g></svg></g></svg></g><g></g></svg></g></svg></g><defs></defs></svg><rect width="395.52" height="39.27591083089394" fill="none" stroke="none" visibility="hidden"></rect></g></svg></g></svg>