<svg xmlns="http://www.w3.org/2000/svg" version="1.1" xmlns:xlink="http://www.w3.org/1999/xlink" xmlns:svgjs="http://svgjs.dev/svgjs" width="2000" height="303" viewBox="0 0 2000 303"><g transform="matrix(1,0,0,1,-1.2121212121212466,-0.11749343833832882)"><svg viewBox="0 0 396 60" data-background-color="#ffffff" preserveAspectRatio="xMidYMid meet" height="303" width="2000" xmlns="http://www.w3.org/2000/svg" xmlns:xlink="http://www.w3.org/1999/xlink"><g id="tight-bounds" transform="matrix(1,0,0,1,0.2400000000000091,0.023266027393731292)"><svg viewBox="0 0 395.52 59.95346794521251" height="59.95346794521251" width="395.52"><g><svg viewBox="0 0 395.52 59.95346794521251" height="59.95346794521251" width="395.52"><g><svg viewBox="0 0 575.4432898399195 87.22648875330009" height="59.95346794521251" width="395.52"><g transform="matrix(1,0,0,1,0,12.055180428278085)"><svg viewBox="0 0 395.52000000000004 63.11612789674392" height="63.11612789674392" width="395.52000000000004"><g id="textblocktransform"><svg viewBox="0 0 395.52000000000004 63.11612789674392" height="63.11612789674392" width="395.52000000000004" id="textblock"><g><svg viewBox="0 0 395.52000000000004 63.11612789674392" height="63.11612789674392" width="395.52000000000004"><g transform="matrix(1,0,0,1,0,0)"><svg width="395.52000000000004" viewBox="1.32 -25.34 166.43 26.56" height="63.11612789674392" data-palette-color="#001f3f"><path d="M19.53-1.42L19.53-1.42Q19.43-2.05 18.97-4.13 18.51-6.2 17.77-8.84L17.77-8.84Q17.09-8.74 16.41-8.74 15.72-8.74 14.99-8.74L14.99-8.74Q14.01-8.74 12.94-8.76 11.87-8.79 10.99-8.96 10.11-9.13 9.52-9.5 8.94-9.86 8.94-10.55L8.94-10.55Q8.94-11.08 9.4-11.43 9.86-11.77 10.74-11.77L10.74-11.77Q12.7-11.47 14.65-11.47L14.65-11.47Q15.23-11.47 15.82-11.47 16.41-11.47 16.99-11.57L16.99-11.57Q16.41-13.57 15.77-15.5 15.14-17.43 14.53-18.95 13.92-20.46 13.38-21.39 12.84-22.31 12.4-22.31L12.4-22.31Q11.57-22.31 10.64-20.8 9.72-19.29 8.79-16.99 7.86-14.7 7.03-11.99 6.2-9.28 5.54-6.88 4.88-4.49 4.49-2.81 4.1-1.12 4.1-0.83L4.1-0.83Q4-0.34 3.64-0.1 3.27 0.15 2.88 0.15L2.88 0.15Q2.29 0.15 1.81-0.24 1.32-0.63 1.32-1.32L1.32-1.32Q2.69-8.06 4.44-13.33L4.44-13.33Q5.18-15.58 6.05-17.75 6.93-19.92 7.96-21.61 8.98-23.29 10.13-24.32 11.28-25.34 12.5-25.34L12.5-25.34Q13.77-25.34 14.92-23.78 16.06-22.22 17.09-19.8 18.12-17.38 18.95-14.53 19.78-11.67 20.41-9.11 21.04-6.54 21.44-4.61 21.83-2.69 21.97-2.2L21.97-2.2 21.97-1.9Q21.97-1.12 21.51-0.66 21.04-0.2 20.51-0.2L20.51-0.2Q20.12-0.2 19.85-0.46 19.58-0.73 19.53-1.42ZM38.38-0.05L38.38-0.05Q33.59-0.44 31.35-3.22 29.1-6.01 29.1-11.18L29.1-11.18 29.1-13.23Q27.19-13.23 25.93-13.6 24.66-13.96 24.66-15.19L24.66-15.19Q24.75-15.63 25.1-15.94 25.44-16.26 26.07-16.26L26.07-16.26Q26.66-16.26 27.49-16.11 28.32-15.97 29.29-15.97L29.29-15.97Q29.29-17.53 29.39-19.17 29.49-20.8 29.76-22.12 30.03-23.44 30.47-24.29 30.91-25.15 31.64-25.15L31.64-25.15Q32.18-25.15 32.61-24.68 33.05-24.22 33.05-23.44L33.05-23.44Q33.05-22.22 32.76-20.17 32.47-18.12 32.32-15.87L32.32-15.87Q32.71-15.82 33.13-15.8 33.54-15.77 33.98-15.77L33.98-15.77Q34.76-15.77 35.57-15.82 36.37-15.87 37.2-15.97L37.2-15.97Q37.89-15.97 38.33-15.58 38.77-15.19 38.77-14.7L38.77-14.7Q38.77-14.01 38.38-13.7 37.99-13.38 37.38-13.26 36.77-13.13 35.96-13.13 35.15-13.13 34.37-13.13L34.37-13.13 32.13-13.13Q32.08-12.6 32.08-12.11 32.08-11.62 32.08-11.13L32.08-11.13Q32.08-9.38 32.39-7.98 32.71-6.59 33.49-5.52 34.27-4.44 35.54-3.76 36.81-3.08 38.67-2.78L38.67-2.78Q39.21-2.69 39.45-2.34 39.69-2 39.69-1.56L39.69-1.56Q39.69-0.98 39.38-0.51 39.06-0.05 38.38-0.05ZM47.85-14.79L47.85-14.79Q48.48-15.23 49.73-15.41 50.97-15.58 52.34-15.58L52.34-15.58Q55.17-15.58 56.49-13.89 57.81-12.21 57.81-8.35L57.81-8.35Q57.81-6.35 57.61-4.61 57.42-2.88 57.1-1.59 56.78-0.29 56.29 0.44 55.81 1.17 55.22 1.17L55.22 1.17Q54.73 1.17 54.39 0.78 54.05 0.39 54.05-0.29L54.05-0.29Q54.05-1.17 54.19-2.15 54.34-3.13 54.54-4.2 54.73-5.27 54.88-6.37 55.02-7.47 55.02-8.5L55.02-8.5Q55.02-10.5 54.37-11.65 53.71-12.79 51.75-12.79L51.75-12.79Q50.78-12.79 49.85-12.45 48.92-12.11 48.14-12.11L48.14-12.11Q47.65-12.11 47.36-12.5 47.07-12.89 47.07-13.38L47.07-13.38Q47.07-13.77 47.24-14.16 47.41-14.55 47.85-14.79ZM46.38-23.49L46.38-23.19Q46.14-21.29 46.02-18.7 45.89-16.11 45.89-13.28L45.89-13.28Q45.89-10.45 46.09-7.64 46.28-4.83 46.28-2.64L46.28-2.64Q46.28-1.71 45.84-1.17 45.41-0.63 44.77-0.63L44.77-0.63Q44.04-0.63 43.67-1.95 43.31-3.27 43.16-5.18 43.01-7.08 43.01-9.2 43.01-11.33 43.01-12.94L43.01-12.94Q43.01-15.77 43.11-18.51 43.21-21.24 43.45-23.58L43.45-23.58Q43.5-24.46 44.01-24.8 44.53-25.15 45.06-25.15L45.06-25.15Q45.6-25.15 45.99-24.68 46.38-24.22 46.38-23.49L46.38-23.49ZM74.11-2.39L74.11-2.39Q74.94-2.39 75.33-2.03 75.72-1.66 75.72-1.07L75.72-1.07Q75.72-0.44 75.41-0.12 75.09 0.2 74.63 0.34 74.16 0.49 73.6 0.49 73.04 0.49 72.6 0.49L72.6 0.49Q70.55 0.49 68.52-0.02 66.5-0.54 64.89-1.56 63.27-2.59 62.25-4.1 61.22-5.62 61.22-7.57L61.22-7.57Q61.22-9.67 62.37-11.21 63.52-12.74 65.23-13.77 66.94-14.79 68.89-15.28 70.84-15.77 72.5-15.77L72.5-15.77Q73.33-15.77 74.19-15.58 75.04-15.38 75.72-14.89 76.41-14.4 76.85-13.57 77.29-12.74 77.29-11.47L77.29-11.47Q77.29-9.96 76.31-8.89 75.33-7.81 73.97-7.08 72.6-6.35 71.09-6.01 69.57-5.66 68.55-5.62L68.55-5.62Q68.01-5.62 67.74-6.03 67.47-6.45 67.47-6.98L67.47-6.98Q67.47-7.42 67.72-7.89 67.96-8.35 68.55-8.35L68.55-8.35Q69.47-8.35 70.52-8.54 71.57-8.74 72.48-9.16 73.38-9.57 73.97-10.21 74.55-10.84 74.55-11.72L74.55-11.72Q74.55-13.04 72.55-13.04L72.55-13.04Q71.23-13.04 69.77-12.67 68.3-12.3 67.08-11.57 65.86-10.84 65.06-9.74 64.25-8.64 64.25-7.18L64.25-7.18Q64.25-6.05 64.96-5.18 65.67-4.3 66.81-3.64 67.96-2.98 69.45-2.64 70.94-2.29 72.55-2.29L72.55-2.29Q72.94-2.29 73.33-2.32 73.72-2.34 74.11-2.39ZM85.54-14.79L85.54-14.79Q86.32-15.28 87.37-15.48 88.42-15.67 89.54-15.67L89.54-15.67Q91.1-15.58 92.23-15.14 93.35-14.7 94.08-13.84 94.81-12.99 95.16-11.65 95.5-10.3 95.5-8.35L95.5-8.35Q95.5-6.35 95.3-4.61 95.11-2.88 94.77-1.59 94.42-0.29 93.96 0.46 93.5 1.22 92.91 1.22L92.91 1.22Q92.47 1.22 92.13 0.93 91.79 0.63 91.79 0L91.79 0Q91.79-0.63 91.96-1.64 92.13-2.64 92.35-3.78 92.57-4.93 92.74-6.13 92.91-7.32 92.91-8.35L92.91-8.35Q92.91-9.77 92.69-10.62 92.47-11.47 92.06-11.99 91.64-12.5 91.01-12.72 90.37-12.94 89.54-13.04L89.54-13.04Q88.52-13.04 87.49-12.7 86.46-12.35 85.73-12.35L85.73-12.35Q85.29-12.35 85.02-12.7 84.76-13.04 84.76-13.48L84.76-13.48Q84.76-13.82 84.93-14.18 85.1-14.55 85.54-14.79ZM83.39-15.28L83.39-15.28Q83.39-12.06 83.44-8.76 83.49-5.47 83.88-2.78L83.88-2.78 83.88-2.44Q83.88-1.61 83.46-1.2 83.05-0.78 82.56-0.78L82.56-0.78Q82.12-0.78 81.73-1.17 81.34-1.56 81.24-2.39L81.24-2.39Q81-4.74 80.85-7.23 80.7-9.72 80.7-12.35L80.7-12.35Q80.7-12.89 80.65-13.57 80.61-14.26 80.68-14.87 80.75-15.48 81.07-15.89 81.39-16.31 82.07-16.31L82.07-16.31Q82.56-16.31 82.97-15.99 83.39-15.67 83.39-15.28ZM105.16-13.13L105.16-13.13 103.89-13.13Q103.06-12.7 102.62-11.96 102.18-11.23 101.97-10.42 101.75-9.62 101.7-8.89 101.65-8.15 101.65-7.71L101.65-7.71Q101.65-6.74 101.92-5.86 102.18-4.98 102.7-4.32 103.21-3.66 103.89-3.27 104.58-2.88 105.46-2.88L105.46-2.88Q107.02-2.88 107.87-3.56 108.73-4.25 109.14-5.27 109.56-6.3 109.66-7.5 109.75-8.69 109.75-9.72L109.75-9.72Q109.66-10.35 109.31-11.01 108.97-11.67 108.46-12.16 107.95-12.65 107.34-12.96 106.73-13.28 106.09-13.28L106.09-13.28Q105.6-13.28 105.16-13.13ZM111.8-4.64L111.8-4.64Q111.27-2.39 109.41-1.22 107.56-0.05 105.31-0.05L105.31-0.05Q103.7-0.05 102.45-0.76 101.21-1.46 100.38-2.61 99.55-3.76 99.13-5.2 98.72-6.64 98.72-8.11L98.72-8.11Q98.72-9.28 99.01-10.67 99.3-12.06 99.94-13.23 100.57-14.4 101.6-15.21 102.62-16.02 104.09-16.02L104.09-16.02Q104.87-16.02 105.16-15.87L105.16-15.87Q105.41-15.92 105.6-15.92 105.8-15.92 106.04-15.92L106.04-15.92Q108.34-15.92 109.66-14.94 110.97-13.96 111.78-12.43 112.59-10.89 113.07-9.03 113.56-7.18 114.25-5.47L114.25-5.47Q114.44-4.88 114.83-4.17 115.22-3.47 115.61-2.78 116-2.1 116.27-1.56 116.54-1.03 116.54-0.73L116.54-0.73Q116.54-0.2 116.15 0.1 115.76 0.39 115.27 0.39L115.27 0.39Q114.78 0.39 114.27-0.02 113.76-0.44 113.29-1.12 112.83-1.81 112.44-2.73 112.05-3.66 111.8-4.64ZM150.08-1.42L150.08-1.42Q149.98-2.05 149.52-4.13 149.05-6.2 148.32-8.84L148.32-8.84Q147.64-8.74 146.96-8.74 146.27-8.74 145.54-8.74L145.54-8.74Q144.56-8.74 143.49-8.76 142.41-8.79 141.54-8.96 140.66-9.13 140.07-9.5 139.48-9.86 139.48-10.55L139.48-10.55Q139.48-11.08 139.95-11.43 140.41-11.77 141.29-11.77L141.29-11.77Q143.24-11.47 145.2-11.47L145.2-11.47Q145.78-11.47 146.37-11.47 146.96-11.47 147.54-11.57L147.54-11.57Q146.96-13.57 146.32-15.5 145.69-17.43 145.08-18.95 144.46-20.46 143.93-21.39 143.39-22.31 142.95-22.31L142.95-22.31Q142.12-22.31 141.19-20.8 140.27-19.29 139.34-16.99 138.41-14.7 137.58-11.99 136.75-9.28 136.09-6.88 135.43-4.49 135.04-2.81 134.65-1.12 134.65-0.83L134.65-0.83Q134.55-0.34 134.19-0.1 133.82 0.15 133.43 0.15L133.43 0.15Q132.84 0.15 132.36-0.24 131.87-0.63 131.87-1.32L131.87-1.32Q133.23-8.06 134.99-13.33L134.99-13.33Q135.72-15.58 136.6-17.75 137.48-19.92 138.51-21.61 139.53-23.29 140.68-24.32 141.83-25.34 143.05-25.34L143.05-25.34Q144.32-25.34 145.47-23.78 146.61-22.22 147.64-19.8 148.66-17.38 149.49-14.53 150.32-11.67 150.96-9.11 151.59-6.54 151.98-4.61 152.38-2.69 152.52-2.2L152.52-2.2 152.52-1.9Q152.52-1.12 152.06-0.66 151.59-0.2 151.06-0.2L151.06-0.2Q150.67-0.2 150.4-0.46 150.13-0.73 150.08-1.42ZM158.77-2.69L160.09-2.69Q160.48-5.13 160.7-8.06 160.92-10.99 160.92-13.92L160.92-13.92Q160.92-16.26 160.72-18.31 160.53-20.36 160.04-21.63L160.04-21.63Q159.89-22.17 159.21-22.22 158.52-22.27 157.77-22.27 157.01-22.27 156.38-22.53 155.74-22.8 155.74-23.78L155.74-23.78Q155.74-24.27 156.16-24.66 156.57-25.05 157.3-25.05L157.3-25.05Q158.28-24.95 159.14-24.9 159.99-24.85 160.77-24.85L160.77-24.85Q161.89-24.85 163.29-25.1 164.68-25.34 166.39-25.34L166.39-25.34Q166.97-25.34 167.36-24.98 167.75-24.61 167.75-24.12L167.75-24.12Q167.75-23.49 167.24-23.1 166.73-22.71 166-22.51 165.26-22.31 164.43-22.27 163.6-22.22 162.97-22.22L162.97-22.22Q163.46-20.46 163.63-17.82 163.8-15.19 163.8-12.4L163.8-12.4Q163.8-9.62 163.58-7.01 163.36-4.39 163.16-2.73L163.16-2.73Q163.9-2.73 164.65-2.86 165.41-2.98 166.39-2.98L166.39-2.98Q166.97-2.98 167.36-2.61 167.75-2.25 167.75-1.86L167.75-1.86Q167.75-1.12 167.02-0.73 166.29-0.34 165.26-0.15 164.24 0.05 163.11 0.07 161.99 0.1 161.21 0.1L161.21 0.1Q160.38 0.1 159.43 0.1 158.48 0.1 157.65-0.05 156.82-0.2 156.28-0.54 155.74-0.88 155.74-1.56L155.74-1.56Q155.74-2.05 156.16-2.42 156.57-2.78 157.3-2.78L157.3-2.78Q157.65-2.73 158.01-2.71 158.38-2.69 158.77-2.69L158.77-2.69Z" opacity="1" transform="matrix(1,0,0,1,0,0)" fill="#001f3f" class="wordmark-text-0" data-fill-palette-color="primary" id="text-0"></path></svg></g></svg></g></svg></g></svg></g><g transform="matrix(1,0,0,1,410.4202030093518,0)"><svg viewBox="0 0 165.02308683056776 87.22648875330009" height="87.22648875330009" width="165.02308683056776"><g><svg xmlns="http://www.w3.org/2000/svg" xmlns:xlink="http://www.w3.org/1999/xlink" version="1.1" x="0" y="0" viewBox="15 31.5 70 37" enable-background="new 0 0 100 100" xml:space="preserve" height="87.22648875330009" width="165.02308683056776" class="icon-icon-0" data-fill-palette-color="accent" id="icon-0"><g fill="#001f3f" data-fill-palette-color="accent"><path d="M44.866 44.847A7.24 7.24 0 0 1 55.134 44.847 7.31 7.31 0 0 1 55.134 55.154 7.24 7.24 0 0 1 44.866 55.154 7.307 7.307 0 0 1 44.866 44.847M50 31.5C30.452 31.5 15 50 15 50S30.452 68.5 50 68.5C54.158 68.5 58.129 67.661 61.807 66.344L56.973 61.491C51.813 64.651 44.986 63.994 40.523 59.514 35.288 54.26 35.288 45.741 40.523 40.486S54.245 35.232 59.479 40.486C63.942 44.966 64.597 51.818 61.449 56.998L68 63.575C78.237 58.095 85 50 85 50S69.548 31.5 50 31.5" fill="#001f3f" data-fill-palette-color="accent"></path></g></svg></g></svg></g></svg></g></svg></g><defs></defs></svg><rect width="395.52" height="59.95346794521251" fill="none" stroke="none" visibility="hidden"></rect></g></svg></g></svg>